<svg width="200" height="200" xmlns="http://www.w3.org/2000/svg">
  <g transform="translate(100,100)">
    <!-- Leaf 1 -->
    <path d="M 0 -80 A 80 80 0 0 1 69.28 -40 L 34.64 -20 A 40 40 0 0 0 0 -40 Z" fill="#00FF00"/>
    <!-- Leaf 2 -->
    <path d="M 69.28 -40 A 80 80 0 0 1 40 -69.28 L 20 -34.64 A 40 40 0 0 0 40 -20 Z" fill="#00FF00" transform="rotate(90)"/>
    <!-- Leaf 3 -->
    <path d="M 40 -69.28 A 80 80 0 0 1 -40 -69.28 L -20 -34.64 A 40 40 0 0 0 -20 -20 Z" fill="#00FF00" transform="rotate(180)"/>
    <!-- Leaf 4 -->
    <path d="M -40 -20 A 80 80 0 0 1 -69.28 -40 L -34.64 -20 A 40 40 0 0 0 -20 -40 Z" fill="#00FF00" transform="rotate(270)"/>
    <!-- Center circle -->
    <circle cx="0" cy="0" r="20" fill="#00FF00"/>
    <!-- Veins (simplified) -->
    <line x1="0" y1="-20" x2="0" y2="-60" stroke="#FFFFFF" stroke-width="2"/>
    <line x1="20" y1="-40" x2="60" y2="0" stroke="#FFFFFF" stroke-width="2" transform="rotate(45)"/>
    <line x1="20" y1="-40" x2="60" y2="0" stroke="#FFFFFF" stroke-width="2" transform="rotate(135)"/>
    <line x1="-20" y1="-40" x2="-60" y2="0" stroke="#FFFFFF" stroke-width="2" transform="rotate(225)"/>
    <line x1="-20" y1="-40" x2="-60" y2="0" stroke="#FFFFFF" stroke-width="2" transform="rotate(315)"/>
  </g>
</svg>